<?xml version="1.0" standalone="no"?>
<!DOCTYPE svg PUBLIC "-//W3C//DTD SVG 20010904//EN"
 "http://www.w3.org/TR/2001/REC-SVG-20010904/DTD/svg10.dtd">
<svg version="1.0" xmlns="http://www.w3.org/2000/svg"
 width="512.000000pt" height="512.000000pt" viewBox="0 0 512.000000 512.000000"
 preserveAspectRatio="xMidYMid meet">

<g transform="translate(0.000000,512.000000) scale(0.100000,-0.100000)"
fill="#808191" stroke="none">
<path d="M782 4469 c-46 -14 -118 -88 -131 -135 -17 -60 -15 -3493 1 -3548 16
-53 81 -118 134 -134 31 -9 211 -12 717 -12 l675 0 53 28 c39 20 62 41 84 77
l30 48 0 1767 0 1767 -30 48 c-22 36 -45 57 -84 77 l-53 28 -682 -1 c-401 0
-695 -5 -714 -10z m1138 -1909 l0 -1490 -425 0 -425 0 0 1490 0 1490 425 0
425 0 0 -1490z"/>
<path d="M2889 4452 c-39 -20 -62 -41 -84 -77 l-30 -48 -3 -666 c-2 -483 0
-681 8 -720 17 -77 84 -144 161 -161 39 -8 237 -10 720 -8 l666 3 48 30 c36
22 57 45 77 84 l28 53 0 675 c0 506 -3 686 -12 717 -16 53 -81 118 -134 134
-31 9 -211 12 -717 12 l-675 0 -53 -28z m1161 -827 l0 -425 -425 0 -425 0 0
425 0 425 425 0 425 0 0 -425z"/>
<path d="M2928 2338 c-21 -5 -58 -28 -83 -50 -78 -69 -76 -47 -73 -820 l3
-675 30 -48 c22 -36 45 -57 84 -77 l53 -28 675 0 c506 0 686 3 717 12 53 16
118 81 134 134 9 31 12 211 12 717 l0 675 -28 53 c-20 39 -41 62 -77 84 l-48
30 -681 2 c-430 1 -695 -2 -718 -9z m1122 -843 l0 -425 -425 0 -425 0 0 425 0
425 425 0 425 0 0 -425z"/>
</g>
</svg>
