<?xml version="1.0" standalone="yes"?>
<svg xmlns="http://www.w3.org/2000/svg" width="512" height="512">

<path style="fill:#B0B1C8;; stroke:none;" d="M386 0.464508C371.317 3.10715 362.117 12.8826 352 23L327 48C322.787 52.2195 317.396 56.7109 316.569 63C315.23 73.183 327.721 81.7209 334 88L393 147L431 185C436.129 190.121 441.897 196.829 450 194.968C460.373 192.584 472.575 176.422 480 169C488.512 160.492 498.508 152.214 505.038 142C531.328 100.878 483.563 66.563 458 41C437.682 20.6819 418.166 -5.32477 386 0.464508z"/>

<path style="fill:#B0B1C8;; stroke:none;" d="M162 445C149.202 446.725 136.413 451.882 124 455.421C119.728 456.639 113.47 459.776 109 458.932C104.602 458.102 100.99 452.99 98 450L74 426C68.3955 420.396 54.5791 411.005 53.0679 403C52.2241 398.53 55.3608 392.272 56.5787 388C60.1498 375.475 65.8679 361.984 67 349C74.2369 349 90.8055 345.929 96.6096 350.603C105.174 357.501 104.288 377.482 120 373.441C128.454 371.268 135.097 361.903 141 356L182 315L293 204C310.411 186.589 333.262 169.298 347.196 149C353.613 139.652 347.784 131.818 340.999 125L313 97C307.971 91.973 302.8 85.4632 295 85.733C285.521 86.061 278.123 96.8669 272 103C254.863 120.164 238.17 137.83 221 155C182.485 193.515 144.514 232.486 106 271C87.4905 289.51 61.6687 308.703 47.8434 331C38.0272 346.831 35.4384 372.087 30.2909 390C21.674 419.987 13.1332 449.996 4.5787 480C2.05375 488.856 -5.23728 505.012 6.01543 510.821C13.3317 514.598 23.8164 509.773 31 507.709L92 490.291L151 473.421C160.374 470.746 172.649 469.067 181 463.995C195.831 454.985 207.15 437.797 220 426.17C261.691 388.446 300.14 346.668 340 307.001C362.87 284.241 386.164 261.836 409 239C417 231 431.813 220.553 423.196 208C414.047 194.672 399.427 183.409 388 172C383.025 167.033 377.748 160.924 370 161.639C362.436 162.336 356.974 170.026 352 175L313 214L189 338L154 373C149.083 377.917 141.432 383.349 138.894 390C132.289 407.306 154.831 405.763 160.972 415.39C165.016 421.73 162 437.563 162 445z"/>

</svg>
