<?xml version="1.0" standalone="yes"?>
<svg xmlns="http://www.w3.org/2000/svg" width="512" height="512">
<path style="fill:#ffffff; stroke:none;" d="M0 0L0 454L1 454C5.39751 445.547 12.1244 444.006 21 444L21 368C21 359.138 18.2922 344.822 23.0093 337.004C29.3774 326.449 42.5068 329 53 329L131 329C141.162 329 153.674 326.571 160.486 336.015C165.833 343.429 163 358.26 163 367L163 444L185 444L185 259L185 211C185 204.333 183.516 195.763 187.653 190.04C194.539 180.514 207.77 183 218 183L296 183C306.398 183 319.873 180.803 325.543 192.004C328.63 198.102 327 207.345 327 214L327 264L327 444L349 444L349 145L349 71C349 62.093 346.441 49.2177 353.329 42.3295C360.361 35.298 373.899 38 383 38L462 38C472.546 38 486.327 36.1826 490.347 49C493.776 59.9312 491 75.5681 491 87L491 170L491 444C499.876 444.006 506.603 445.547 511 454L512 454L512 0L0 0z"/>
<path style="fill:#808191; stroke:none;" d="M349 444L327 444L327 258L327 210C327 203.428 328.544 194.684 324.347 189.094C317.843 180.431 304.45 183 295 183L216 183C206.168 183 191.91 180.397 186.457 191.015C183.347 197.07 185 206.377 185 213L185 263L185 444L163 444L163 366C163 357.371 165.88 342.306 160.486 335.043C153.99 326.296 140.514 329 131 329L53 329C43.1542 329 29.07 326.135 23.0093 336.015C18.2618 343.755 21 358.197 21 367L21 444C15.4675 444.001 9.63597 443.639 5.10494 447.419C-2.58661 453.836 -1.68747 467.811 7.01543 472.91C15.8279 478.074 32.0754 475 42 475L125 475L395 475L471 475C480.619 475 495.174 477.695 503.996 473.427C513.528 468.817 514.937 454.128 506.895 447.419C502.364 443.639 496.533 444.001 491 444L491 169L491 86C491 74.5713 493.779 58.927 490.347 48C486.456 35.6107 472.093 38 462 38L382 38C373.186 38 359.138 35.1794 352.533 42.3295C346.343 49.031 349 62.5535 349 71L349 146L349 444z"/>
<path style="fill:#ffffff; stroke:none;" d="M379 68L379 444L460 444L460 68L379 68M216 214L216 444L296 444L296 214L216 214M52 360L52 444L133 444L133 360L52 360M0 465L0 512L512 512L512 465L511 465C504.623 477.258 491.809 475 480 475L397 475L104 475L37 475C21.8144 475 10.824 476.986 0 465z"/>
</svg>
