<?xml version="1.0" standalone="no"?>
<!DOCTYPE svg PUBLIC "-//W3C//DTD SVG 20010904//EN"
 "http://www.w3.org/TR/2001/REC-SVG-20010904/DTD/svg10.dtd">
<svg version="1.0" xmlns="http://www.w3.org/2000/svg"
 width="512.000000pt" height="512.000000pt" viewBox="0 0 512.000000 512.000000"
 preserveAspectRatio="xMidYMid meet">

<g transform="translate(0.000000,512.000000) scale(0.100000,-0.100000)"
fill="#ffffff" stroke="none">
<path d="M2285 4675 c-536 -71 -1019 -339 -1377 -765 -147 -175 -295 -447
-372 -681 -75 -229 -106 -422 -106 -669 0 -247 31 -440 106 -669 151 -461 457
-854 879 -1131 178 -116 454 -231 675 -280 211 -47 495 -63 705 -40 382 43
751 191 1065 428 181 137 403 387 530 596 274 455 367 1019 254 1546 -66 308
-198 591 -397 855 -73 96 -265 290 -363 367 -311 245 -700 405 -1086 447 -128
14 -388 12 -513 -4z m571 -435 c605 -103 1123 -548 1319 -1132 247 -738 -25
-1535 -670 -1967 -782 -523 -1840 -310 -2366 477 -379 566 -379 1319 0 1884
135 201 281 347 481 480 364 241 798 332 1236 258z"/>
<path d="M2818 2793 l-548 -548 -260 260 -260 260 -150 -150 -150 -150 410
-410 410 -410 700 700 700 700 -147 147 c-81 82 -150 148 -153 148 -3 0 -251
-246 -552 -547z"/>
</g>
</svg>
