<?xml version="1.0" standalone="no"?>
<!DOCTYPE svg PUBLIC "-//W3C//DTD SVG 20010904//EN"
 "http://www.w3.org/TR/2001/REC-SVG-20010904/DTD/svg10.dtd">
<svg version="1.0" xmlns="http://www.w3.org/2000/svg"
 width="512.000000pt" height="512.000000pt" viewBox="0 0 512.000000 512.000000"
 preserveAspectRatio="xMidYMid meet">

<g transform="translate(0.000000,512.000000) scale(0.100000,-0.100000)"
fill="#808191" stroke="none">
<path d="M959 4466 c-151 -42 -275 -173 -309 -326 -8 -40 -11 -192 -8 -545 3
-488 3 -490 27 -548 44 -111 143 -207 258 -250 56 -21 73 -22 522 -25 277 -2
490 1 528 7 188 29 333 171 363 357 13 80 13 902 -1 983 -27 170 -148 302
-314 346 -50 12 -138 15 -540 14 -355 -1 -492 -4 -526 -13z m961 -841 l0 -425
-425 0 -425 0 0 425 0 425 425 0 425 0 0 -425z"/>
<path d="M3093 4465 c-81 -22 -132 -52 -193 -114 -64 -63 -103 -138 -119 -225
-14 -75 -15 -907 -1 -990 30 -186 175 -328 363 -357 38 -6 251 -9 528 -7 449
3 466 4 522 25 115 43 214 139 258 250 24 58 24 60 27 543 2 338 0 503 -8 545
-31 157 -156 289 -314 331 -75 20 -988 19 -1063 -1z m957 -840 l0 -425 -425 0
-425 0 0 425 0 425 425 0 425 0 0 -425z"/>
<path d="M980 2336 c-83 -18 -149 -54 -211 -116 -63 -63 -92 -112 -114 -197
-21 -81 -22 -981 -1 -1059 41 -155 171 -280 324 -313 35 -7 212 -11 520 -11
388 0 478 3 527 15 166 44 287 176 314 346 14 81 14 903 1 983 -30 183 -173
326 -356 356 -87 15 -936 11 -1004 -4z m940 -841 l0 -425 -425 0 -425 0 0 425
0 425 425 0 425 0 0 -425z"/>
<path d="M3127 2340 c-177 -31 -320 -179 -348 -363 -6 -38 -9 -251 -7 -528 3
-449 4 -466 25 -522 43 -115 139 -214 250 -258 58 -24 60 -24 543 -27 338 -2
503 0 545 8 165 32 303 170 335 335 8 42 10 208 8 545 -3 483 -3 485 -27 543
-44 111 -143 207 -258 250 -57 21 -70 22 -538 24 -264 0 -502 -3 -528 -7z
m923 -845 l0 -425 -425 0 -425 0 0 425 0 425 425 0 425 0 0 -425z"/>
</g>
</svg>
